HIERARCHY
ROOT root
{
	OFFSET	0	13.1	24.9
	CHANNELS 6  Xposition Yposition Zposition Xrotation Yrotation Zrotation
	JOINT spine_1
	{
		OFFSET	0	9.99999	0
		CHANNELS 3  Xrotation Yrotation Zrotation
		JOINT spine_2
		{
			OFFSET	0	112	-10
			CHANNELS 3  Xrotation Yrotation Zrotation
			JOINT spine_3
			{
				OFFSET	0	206.5	19.3
				CHANNELS 3  Xrotation Yrotation Zrotation
				JOINT spine_4
				{
					OFFSET	0	110.4	14.6
					CHANNELS 3  Xrotation Yrotation Zrotation
					JOINT neck_1
					{
						OFFSET	0	71.8	-50.3
						CHANNELS 3  Xrotation Yrotation Zrotation
						JOINT neck_2
						{
							OFFSET	0	86.2	-25.8
							CHANNELS 3  Xrotation Yrotation Zrotation
							JOINT head_ee
							{
								OFFSET	0	179.8	-8.7
								CHANNELS 3  Xrotation Yrotation Zrotation
								End Site
								{
									OFFSET	1	0	0
								}
							}
						}
					}
					JOINT left_clavicle
					{
						OFFSET	-43.2	22.4	-70.8
						CHANNELS 3  Xrotation Yrotation Zrotation
						JOINT left_shoulder
						{
							OFFSET	-93.9	-5.79999	48.7
							CHANNELS 3  Xrotation Yrotation Zrotation
							JOINT left_elbow
							{
								OFFSET	-291.4	-30.8	15.2
								CHANNELS 3  Xrotation Yrotation Zrotation
								JOINT left_lowarm_twist
								{
									OFFSET	-110.7	-3.89999	13.6
									CHANNELS 3  Xrotation Yrotation Zrotation
									JOINT left_hand
									{
										OFFSET	-110.7	-3.89999	13.6
										CHANNELS 3  Xrotation Yrotation Zrotation
										JOINT left_ee
										{
											OFFSET	-80.8	-5.10001	12.1
											CHANNELS 3  Xrotation Yrotation Zrotation
											End Site
											{
												OFFSET	1	0	0
											}
										}
									}
								}
							}
						}
					}
					JOINT right_clavicle
					{
						OFFSET	43.2	22.4	-70.8
						CHANNELS 3  Xrotation Yrotation Zrotation
						JOINT right_shoulder
						{
							OFFSET	93.9	-5.79999	48.7
							CHANNELS 3  Xrotation Yrotation Zrotation
							JOINT right_elbow
							{
								OFFSET	291.4	-30.8	15.2
								CHANNELS 3  Xrotation Yrotation Zrotation
								JOINT right_lowarm_twist
								{
									OFFSET	110.7	-3.89999	13.6
									CHANNELS 3  Xrotation Yrotation Zrotation
									JOINT right_hand
									{
										OFFSET	110.7	-3.89999	13.6
										CHANNELS 3  Xrotation Yrotation Zrotation
										JOINT right_ee
										{
											OFFSET	80.8	-5.10001	12.1
											CHANNELS 3  Xrotation Yrotation Zrotation
											End Site
											{
												OFFSET	1	0	0
											}
										}
									}
								}
							}
						}
					}
				}
			}
		}
	}
	JOINT left_hip
	{
		OFFSET	-82.8	-127.5	0.300001
		CHANNELS 3  Xrotation Yrotation Zrotation
		JOINT left_knee
		{
			OFFSET	-28.2	-396.7	2.2
			CHANNELS 3  Xrotation Yrotation Zrotation
			JOINT left_ankle
			{
				OFFSET	-11.7	-411.3	35.4
				CHANNELS 3  Xrotation Yrotation Zrotation
				JOINT left_toes
				{
					OFFSET	0	-60	-88.6
					CHANNELS 3  Xrotation Yrotation Zrotation
					JOINT left_foot_ee
					{
						OFFSET	-22.5	-16.5	-42.2
						CHANNELS 3  Xrotation Yrotation Zrotation
						End Site
						{
							OFFSET	1	0	0
						}
					}
				}
			}
		}
	}
	JOINT right_hip
	{
		OFFSET	82.8	-127.5	0.300001
		CHANNELS 3  Xrotation Yrotation Zrotation
		JOINT right_knee
		{
			OFFSET	28.2	-396.7	2.2
			CHANNELS 3  Xrotation Yrotation Zrotation
			JOINT right_ankle
			{
				OFFSET	11.7	-411.3	35.4
				CHANNELS 3  Xrotation Yrotation Zrotation
				JOINT right_toes
				{
					OFFSET	0	-60	-88.6
					CHANNELS 3  Xrotation Yrotation Zrotation
					JOINT right_foot_ee
					{
						OFFSET	22.5	-16.5	-42.2
						CHANNELS 3  Xrotation Yrotation Zrotation
						End Site
						{
							OFFSET	1	0	0
						}
					}
				}
			}
		}
	}
}
MOTION
Frames: 13
Frame Time: 0.02
3756.19 774.527 -1528.33 4.59892 66.6082 -0.36898 -2.9652 -0.11318 0.439129 -2.96511 -0.140893 0.431037 -2.96612 -0.248312 0.379454 -2.96627 -0.185269 0.413908 -4.60797 18.3214 -0.858998 -4.26357 34.3407 2.16404 -0.0 0.0 -0.0 4.17586 11.0443 8.42323 -16.8601 -12.472 56.5882 3.28112 -58.385 1.83354 -56.9373 -4.9045 4.99567 -0.923976 17.3866 1.43906 -0.0 0.0 -0.0 8.15801 25.8784 -14.786 -23.6969 35.3041 -57.9951 0.685897 18.7664 -0.113344 -2.50947 0.095151 -0.306288 -2.85791 1.63765 20.2792 0.0 0.0 0.0 8.12595 15.0358 -14.5339 -17.8966 0.314745 2.7172 4.57932 -11.3728 -0.702754 -1.76992 0.0 0.0 -0.0 0.0 -0.0 8.78049 21.8021 -10.0156 -12.5869 -0.3103 -1.90285 18.8329 -21.2231 2.66387 -8.1195 0.0 0.0 0.0 0.0 0.0 
3755.1 776.22 -1545.57 5.68573 66.3054 -1.35624 -3.11247 -0.128104 0.436241 -3.11238 -0.155603 0.427205 -3.1135 -0.262472 0.371249 -3.11363 -0.200547 0.408042 -3.81678 18.3429 -2.24296 -3.29633 35.2814 0.468435 -0.0 0.0 -0.0 3.14131 11.3648 6.66432 -19.034 -11.6796 56.5555 3.47572 -59.8375 2.00055 -56.2009 -4.81441 4.96728 -0.888734 16.9165 1.4512 -0.0 0.0 -0.0 8.76926 26.8445 -16.0346 -22.3323 35.4183 -57.8899 0.692375 18.9311 -0.115437 -1.84779 0.0687595 -0.22593 -2.95473 0.816155 20.5653 0.0 0.0 0.0 8.14602 15.6741 -15.5129 -22.2427 0.262259 3.38184 12.1294 -7.00194 -1.76916 -1.86658 0.0 0.0 -0.0 0.0 -0.0 8.71736 20.8226 -11.1493 -11.9318 -0.304523 -1.8025 20.3339 -21.4607 2.86118 -7.86104 0.0 0.0 0.0 0.0 0.0 
3753.15 776.504 -1549.33 6.10681 66.0326 -1.79771 -3.10423 -0.168767 0.426509 -3.10415 -0.195565 0.414906 -3.10555 -0.297745 0.348914 -3.10564 -0.238904 0.391558 -2.9361 18.5419 -1.98131 -2.28827 35.3017 0.476827 -0.0 0.0 -0.0 3.05327 11.9835 6.54179 -19.5358 -11.079 56.5493 3.40397 -59.3162 1.93868 -56.1279 -4.80551 4.96441 -0.882848 16.91 1.48432 -0.0 0.0 -0.0 9.01054 27.1249 -16.5384 -22.3272 35.3812 -57.5746 0.701359 19.1589 -0.118369 -1.64878 0.0610035 -0.201704 -3.01781 1.08366 21.1516 0.0 0.0 0.0 8.12476 15.8377 -15.5842 -24.5424 0.214134 3.73144 14.1967 -7.34855 -2.05628 -1.37959 0.0 0.0 -0.0 0.0 -0.0 8.30882 20.0706 -11.4091 -11.0212 -0.294588 -1.66314 21.2612 -21.5575 2.98105 -7.68869 0.0 0.0 0.0 0.0 0.0 
3747.59 763.983 -1553.55 7.5389 64.69 -3.56279 -3.08873 -0.145513 0.479848 -3.08861 -0.175752 0.469617 -3.09001 -0.292899 0.406988 -3.09017 -0.224948 0.448138 -1.67405 18.851 -1.60023 -0.845786 35.3393 0.50747 -0.0 0.0 -0.0 3.07977 12.8569 6.62302 -20.0028 -10.3761 56.7677 3.30637 -58.5806 1.85506 -55.9741 -4.78675 4.95831 -0.87447 16.9014 1.53171 -0.0 0.0 -0.0 9.13136 27.5166 -16.7627 -22.6855 35.1719 -56.8272 0.70444 19.2369 -0.119382 -1.41167 0.0518737 -0.172805 -3.09721 1.40633 21.886 0.0 0.0 0.0 8.18329 15.9799 -15.7698 -27.5781 0.129183 4.18953 17.1413 -7.86888 -2.45628 -0.737506 0.0 0.0 -0.0 0.0 -0.0 6.79122 19.1842 -10.9491 -9.91324 -0.279513 -1.4938 22.0564 -21.7384 3.0843 -7.60212 0.0 0.0 0.0 0.0 0.0 
3734.05 745.001 -1559.47 8.91059 62.789 -4.59676 -2.94934 -0.0852578 0.531007 -2.94919 -0.118874 0.524506 -2.95017 -0.251271 0.475501 -2.95044 -0.173022 0.509216 0.116508 19.2966 -1.04967 1.19119 35.3353 0.585328 -0.0 0.0 -0.0 3.22495 13.9096 6.90315 -20.4829 -9.34666 57.0152 3.10525 -56.9604 1.68491 -55.7541 -4.75993 4.9495 -0.86185 16.8931 1.60514 -0.0 0.0 -0.0 9.19533 28.1665 -16.8302 -23.2876 34.9746 -55.6385 0.711159 19.4067 -0.121605 -1.153 0.0420498 -0.141236 -3.186 1.89717 22.7773 0.0 0.0 0.0 8.37368 16.2522 -15.2992 -31.7552 -0.0271565 4.81138 20.9194 -8.60941 -2.95307 0.111481 -0.0 -0.0 -0.0 0.0 -0.0 4.5721 18.4236 -11.0818 -8.4992 -0.255521 -1.27815 22.5546 -21.7454 3.14707 -7.5666 0.0 0.0 0.0 0.0 0.0 
3729.92 748.021 -1566.39 9.24272 62.3598 -4.92116 -2.99992 -0.0317447 0.51925 -2.99977 -0.0647211 0.516178 -3.00021 -0.197235 0.481381 -3.00052 -0.118736 0.506489 1.45359 19.5184 -0.699436 2.69241 35.1372 0.593944 -0.0 0.0 -0.0 3.10809 15.4424 6.76754 -21.3098 -7.65859 57.0274 2.84823 -54.6624 1.47227 -55.4399 -4.7217 4.93674 -0.907481 16.7741 1.27547 -0.0 0.0 -0.0 9.13867 27.5358 -16.7767 -22.7691 35.5372 -56.0757 0.739836 20.1275 -0.131304 -1.16919 0.04266 -0.143213 -3.30928 2.76588 24.118 0.0 0.0 0.0 8.42411 16.4948 -15.3515 -32.5163 -0.0605108 4.92339 24.1029 -9.26569 -3.3556 0.876098 -0.0 -0.0 -0.0 0.0 -0.0 3.91399 17.4685 -11.5376 -8.44922 -0.254576 -1.27054 22.9039 -21.7665 3.1911 -7.63186 0.0 0.0 0.0 0.0 0.0 
3721.15 757.514 -1575.57 9.99334 62.3897 -5.94694 -3.01819 0.0763664 0.498818 -3.01805 0.044471 0.502667 -3.01747 -0.088448 0.496818 -3.01782 -0.00887583 0.504552 2.65235 19.1491 -1.67325 4.08567 34.9954 -0.864998 -0.0 0.0 -0.0 3.05371 16.6187 6.72189 -22.075 -5.8116 57.8092 2.7176 -53.3847 1.36655 -55.3523 -4.71105 4.93314 -0.984692 16.6912 0.768063 -0.0 0.0 -0.0 9.46787 27.6 -17.5004 -19.2066 36.6277 -56.8124 0.77653 21.0402 -0.144205 -1.14847 0.0418789 -0.140682 -3.40254 2.73348 24.7909 0.0 0.0 0.0 8.73361 16.7374 -15.5792 -32.8123 -0.0738864 4.96685 26.4594 -9.81404 -3.64413 1.19537 -0.0 -0.0 -0.0 0.0 -0.0 2.13843 16.2763 -11.2585 -8.39521 -0.253547 -1.26231 23.3984 -21.7184 3.25194 -7.61868 0.0 0.0 0.0 0.0 0.0 
3717.14 753.067 -1583.22 10.7619 62.3882 -6.30837 -2.9977 0.0886752 0.500883 -2.99756 0.0566234 0.505511 -2.99687 -0.07728 0.502767 -2.99722 0.00309154 0.508662 2.96873 19.133 -1.81445 4.45418 35.009 -1.11785 -0.0 0.0 -0.0 3.06661 16.9406 6.75289 -22.9655 -5.5087 58.0152 2.62972 -52.4795 1.29642 -55.2179 -4.69474 4.9276 -0.967961 16.6363 0.846426 -0.0 0.0 -0.0 9.61875 27.869 -17.805 -18.0445 36.9628 -56.5359 0.790597 21.3871 -0.149295 -1.16639 0.0425545 -0.142871 -3.45482 2.77946 25.2024 0.0 0.0 0.0 9.22522 17.1444 -15.5131 -33.2066 -0.0920496 5.02461 26.247 -10.2281 -3.62716 1.32466 -0.0 -0.0 -0.0 0.0 -0.0 1.48433 16.4965 -12.1495 -8.27502 -0.251229 -1.24401 23.5666 -21.6796 3.2722 -7.70909 0.0 0.0 0.0 0.0 0.0 
3709.71 752.26 -1584.3 12.1204 62.9684 -7.6481 -2.97913 0.120837 0.541936 -2.97897 0.0861077 0.548526 -2.97791 -0.0598615 0.552007 -2.97833 0.0280676 0.554534 3.34179 19.1064 -1.96863 4.88622 35.0016 -1.40202 -0.0 0.0 -0.0 3.06514 17.3954 6.7654 -24.2405 -5.08877 58.307 2.52885 -51.3925 1.217 -55.0266 -4.67152 4.91963 -0.941523 16.5197 0.957505 -0.0 0.0 -0.0 9.81165 28.0759 -18.2103 -16.7338 37.3003 -56.2239 0.810753 21.8814 -0.156726 -1.18869 0.0433967 -0.145594 -3.5265 2.84592 25.7707 0.0 0.0 0.0 9.88555 17.6662 -15.6577 -33.7111 -0.115876 5.09836 25.8095 -10.8328 -3.58745 1.50904 -0.0 -0.0 -0.0 0.0 -0.0 0.908348 16.9421 -11.8258 -7.99201 -0.24562 -1.20095 23.6589 -21.6423 3.28305 -7.87485 0.0 0.0 0.0 0.0 0.0 
3701.57 749.573 -1583.96 11.8875 62.9607 -8.04934 -2.97469 0.133077 0.624086 -2.97448 0.0930958 0.631289 -2.97315 -0.0746377 0.633736 -2.97371 0.0263837 0.63757 3.82601 19.0725 -2.17186 5.44802 34.9962 -1.77503 -0.0 0.0 -0.0 3.12645 17.8535 6.87422 -25.5083 -4.84126 59.0344 2.44087 -50.4003 1.14873 -54.7529 -4.63836 4.90811 -0.902671 16.2787 1.09122 -0.0 0.0 -0.0 9.86361 28.2688 -18.3033 -15.4581 37.585 -55.6673 0.825134 22.232 -0.162127 -1.22293 0.0446912 -0.149775 -3.62578 2.91395 26.5501 0.0 0.0 0.0 11.1011 18.1699 -15.9782 -33.3876 -0.100524 5.0511 25.1574 -11.6776 -3.52676 1.72729 -0.0 -0.0 -0.0 0.0 -0.0 -0.238297 17.7451 -11.1854 -7.77162 -0.241104 -1.16743 23.6922 -21.6053 3.28662 -8.09698 0.0 0.0 0.0 0.0 0.0 
3687.58 750.368 -1584.71 11.2585 62.9708 -7.72062 -2.97835 0.14063 0.614153 -2.97815 0.101265 0.621856 -2.97674 -0.0643309 0.626754 -2.97729 0.0354586 0.629048 4.42339 19.0211 -2.42859 6.14097 34.9783 -2.24294 -0.0 0.0 -0.0 3.16596 18.3996 6.95025 -26.9578 -4.59101 59.9737 2.3481 -49.3068 1.07781 -54.3694 -4.59198 4.89169 -0.847749 15.9344 1.28017 -0.0 0.0 -0.0 10.0982 28.4145 -18.8089 -13.4856 38.1176 -55.5222 0.846962 22.7608 -0.170479 -1.27192 0.0465484 -0.155755 -3.76435 3.00649 27.6459 0.0 0.0 0.0 12.6988 18.8301 -16.2551 -32.885 -0.0772059 4.97751 24.229 -12.8627 -3.43907 2.03896 -0.0 -0.0 -0.0 0.0 -0.0 -1.90314 18.8604 -10.2225 -7.45831 -0.234463 -1.11981 23.72 -21.5726 3.28955 -8.41509 0.0 0.0 0.0 0.0 0.0 
3682.12 753.596 -1585.53 10.5806 63.1815 -6.98172 -2.9865 0.108942 0.648748 -2.98626 0.0674401 0.654365 -2.98518 -0.105559 0.649307 -2.98576 -0.00169056 0.657829 5.19384 19.0275 -2.62334 7.02874 34.9658 -2.68619 -0.0 0.0 -0.0 3.28454 19.1891 7.14945 -28.336 -4.36792 61.266 2.27828 -48.4504 1.02521 -53.8743 -4.53226 4.87003 -0.780976 15.4455 1.48212 -0.0 0.0 -0.0 10.3278 27.8826 -19.3855 -11.6571 38.5684 -55.4911 0.870044 23.3155 -0.179512 -1.33987 0.0491325 -0.164047 -3.96574 3.08603 29.2298 0.0 0.0 0.0 13.7088 19.5138 -16.0962 -32.0055 -0.0379612 4.84826 22.9474 -14.5347 -3.31672 2.52818 -0.0 -0.0 -0.0 0.0 -0.0 -2.53772 20.3224 -9.61907 -6.46938 -0.211793 -0.969745 23.7825 -21.4225 3.29501 -8.85907 0.0 0.0 0.0 0.0 0.0 
3675.15 765.674 -1586.96 10.3257 62.6336 -6.41051 -3.00089 0.0016253 0.690153 -3.00063 -0.0422932 0.688858 -3.00085 -0.220677 0.653925 -3.00143 -0.114635 0.680569 6.18095 19.0802 -2.80552 8.16392 34.9651 -3.17297 -0.0 0.0 -0.0 3.15166 19.6694 6.96196 -29.579 -4.10844 61.9856 2.21623 -47.6643 0.97906 -53.1519 -4.44547 4.83751 -0.690743 14.7453 1.74273 -0.0 0.0 -0.0 10.4694 26.8503 -19.8222 -9.60038 39.108 -55.4719 0.903865 24.12 -0.193116 -1.50784 0.0555623 -0.184531 -4.24758 3.19543 31.4883 0.0 0.0 0.0 13.5256 20.4771 -16.1533 -30.6779 0.0175051 4.65208 21.2532 -16.7217 -3.15016 3.27667 -0.0 -0.0 -0.0 0.0 -0.0 -2.64136 22.3636 -9.09062 -4.93952 -0.171627 -0.738407 23.8608 -21.2086 3.30147 -9.54032 0.0 0.0 0.0 0.0 0.0 
